<?xml version="1.0" encoding="utf-8"?>
<svg viewBox="0 0 165 256" xmlns="http://www.w3.org/2000/svg" xmlns:xlink="http://www.w3.org/1999/xlink">
<defs>
<linearGradient gradientUnits="userSpaceOnUse" id="linear-gradient" x1="30.141" x2="125.512" y1="-9.915" y2="246.085">
<stop class="linear__stop-1" offset="0"/>
<stop class="linear__stop-2" offset="0.539"/>
<stop class="linear__stop-3" offset="1"/>
</linearGradient>
<radialGradient cx="82.5" cy="128" gradientTransform="matrix(-0.185369, -0.424122, 0.916304, -0.400483, -19.494084, 214.251912)" gradientUnits="userSpaceOnUse" id="radial-gradient" r="30">
<stop class=" radial__stop-1" offset="0"/>
<stop class="radial__stop-2" offset="1"/>
</radialGradient>
</defs>
<rect class="rect" height="256" rx="20" ry="20" width="165" x="0" y="0"/>
<g class="faces__no-fill">
<path class="face" d="M114.27,124.73h21.6a2.72,2.72,0,0,0,2.72-2.72V72.41a2.72,2.72,0,0,0-2.72-2.72H103a2.72,2.72,0,0,0-2.72,2.72v38.12">
</path>
<path class="face" d="M75.91,145.09v17.48a2.68,2.68,0,0,0,2.67,2.67h33a2.68,2.68,0,0,0,2.67-2.67v-49.7a2.68,2.68,0,0,0-2.67-2.67H87">
</path>
<path class="face" d="M64.77,145.8h21.6a2.72,2.72,0,0,0,2.72-2.72V93.48a2.72,2.72,0,0,0-2.72-2.72H53.45a2.72,2.72,0,0,0-2.72,2.72V131.6">
</path>
<path class="face" d="M62.1,131.27h-33a2.68,2.68,0,0,0-2.67,2.67v49.7a2.68,2.68,0,0,0,2.67,2.67h33a2.68,2.68,0,0,0,2.67-2.67v-49.7A2.68,2.68,0,0,0,62.1,131.27Z">
</path>
<path class="face" d="M100.23,116.4V122a2.72,2.72,0,0,0,2.72,2.72h5.19"/>
<path class="face" d="M82.33,110.2H78.58a2.68,2.68,0,0,0-2.67,2.67v26.21"/>
<path class="face" d="M50.73,137.46v5.62a2.72,2.72,0,0,0,2.72,2.72h5.06"/>
</g>
<g class="edges-1">
<text class="edges__text" x="7" y="56">4+</text>
</g>
<g class="edges-2">
<text class="edges__text" rotate="180" x="100" y="195">+4</text>
</g>
<style>.rect {
  fill: url(#linear-gradient);
}

.edge {
  stroke-miterlimit: 10;
  stroke-width: 1.5px;
}
.edges__text {
  font-family: HYShortSamul;
  font-size: 50px;
  transform: scale(1.3, 1);
}

.faces {
  fill: url(#radial-gradient);
  stroke: url(#radial-gradient);
}
.faces__no-fill {
  stroke: url(#radial-gradient);
  fill: none;
}
.faces__text {
  font-family: Colonna MT;
  font-size: 123px;
  stroke: none;
}
.face {
  stroke-miterlimit: 10;
  stroke-width: 5px;
}

.edges-1 {
  fill: rgba(55, 55, 150, 0.65);
}

.edges-2 {
  fill: rgba(55, 55, 150, 0.35);
}

.linear__stop-1 {
  stop-color: rgb(74, 74, 208);
}
.linear__stop-2 {
  stop-color: rgb(83, 83, 157);
}
.linear__stop-3 {
  stop-color: rgba(0, 0, 0, 1);
}
.radial__stop-1 {
  stop-color: rgb(255, 255, 255);
}
.radial__stop-2 {
  stop-color: rgb(170, 170, 225);
}
</style></svg>