<?xml version="1.0" encoding="utf-8"?>
<svg viewBox="0 0 165 256" xmlns="http://www.w3.org/2000/svg" xmlns:xlink="http://www.w3.org/1999/xlink">
<defs>
<linearGradient gradientUnits="userSpaceOnUse" id="linear-gradient" x1="30.141" x2="125.512" y1="-9.915" y2="246.085">
<stop class="linear__stop-1" offset="0"/>
<stop class="linear__stop-2" offset="0.539"/>
<stop class="linear__stop-3" offset="1"/>
</linearGradient>
<radialGradient cx="82.5" cy="128" gradientTransform="matrix(-0.185369, -0.424122, 0.916304, -0.400483, -19.494084, 214.251912)" gradientUnits="userSpaceOnUse" id="radial-gradient" r="30">
<stop class=" radial__stop-1" offset="0"/>
<stop class="radial__stop-2" offset="1"/>
</radialGradient>
</defs>
<rect class="rect" height="256" rx="20" ry="20" width="165" x="0" y="0"/>
<g class="faces">
<path class="face" d="M63.05,171.82c23.49-23.43,47.51-36.78,25.39-62.46,32.2,29.41-.18,43.71-22.19,65.67"/>
<g>
<path class="face" d="M67.16,175c7.66,1.52,22.47,3.53,22.47,4.05s-20.49.45-30.7,0c0-10.25.92-27.71,1.51-27.78s2,12.82,3.52,20.49">
</path>
</g>
<path class="face" d="M106,76.45c.39,10.21-3,15.4-4.54,7.73C78,107.61,54,121,76.11,146.64c-32.2-29.41.17-43.71,22.19-65.67">
</path>
<path class="face" d="M98.3,81c-7.67-1.52-22.47-3.53-22.47-4s20.49-.45,30.69,0c0,10.25-.92,27.71-1.51,27.78s-2-12.82-3.51-20.49">
</path>
</g>
<g class="edges-1">
<path class="edge" d="M 14.965 43.939 C 22.445 36.479 30.095 32.229 23.055 24.049 C 33.305 33.419 22.995 37.969 15.985 44.959">
</path>
<path class="edge" d="M 16.275 44.959 C 18.715 45.449 23.425 46.089 23.425 46.249 C 23.425 46.409 16.905 46.399 13.655 46.249 C 13.655 42.979 13.945 37.419 14.135 37.399 C 14.325 37.379 14.775 41.479 15.255 43.919">
</path>
<path class="edge" d="M 28.655 13.569 C 28.775 16.819 27.655 18.479 27.205 16.029 C 19.735 23.499 12.085 27.789 19.125 35.929 C 8.845 26.559 19.185 21.999 26.195 15.009">
</path>
<path class="edge" d="M 26.195 15.009 C 23.745 14.529 19.035 13.889 19.035 13.719 C 19.035 13.549 25.565 13.579 28.815 13.719 C 28.815 16.989 28.515 22.549 28.325 22.569 C 28.135 22.589 27.685 18.489 27.205 16.039">
</path>
</g>
<g class="edges-2">
<path class="edge" d="M137,239.8c7.48-7.46,15.13-11.72,8.08-19.89,10.26,9.36-.05,13.92-7.06,20.91"/>
<path class="edge" d="M138.31,240.82c2.45.48,7.16,1.13,7.16,1.29s-6.53.14-9.78,0c0-3.26.3-8.82.49-8.85s.64,4.08,1.12,6.53"/>
<path class="edge" d="M150.7,209.43c.12,3.25-1,4.9-1.45,2.46-7.48,7.46-15.13,11.71-8.09,19.89-10.25-9.37.06-13.92,7.07-20.91"/>
<path class="edge" d="M148.23,210.87c-2.44-.49-7.15-1.13-7.15-1.29s6.52-.15,9.77,0c0,3.26-.29,8.82-.48,8.84s-.64-4.08-1.12-6.52">
</path>
</g>
<style>.rect {
  fill: url(#linear-gradient);
}

.edge {
  stroke-miterlimit: 10;
  stroke-width: 1.5px;
}
.edges__text {
  font-family: HYShortSamul;
  font-size: 50px;
  transform: scale(1.3, 1);
}

.faces {
  fill: url(#radial-gradient);
  stroke: url(#radial-gradient);
}
.faces__no-fill {
  stroke: url(#radial-gradient);
  fill: none;
}
.faces__text {
  font-family: Colonna MT;
  font-size: 123px;
  stroke: none;
}
.face {
  stroke-miterlimit: 10;
  stroke-width: 5px;
}

.edges-1 {
  fill: rgba(150, 150, 55, 0.65);
}

.edges-2 {
  fill: rgba(150, 150, 55, 0.35);
}

.linear__stop-1 {
  stop-color: rgb(208, 208, 74);
}
.linear__stop-2 {
  stop-color: rgb(157, 157, 83);
}
.linear__stop-3 {
  stop-color: rgba(0, 0, 0, 1);
}
.radial__stop-1 {
  stop-color: rgb(255, 255, 255);
}
.radial__stop-2 {
  stop-color: rgb(225, 225, 170);
}
</style></svg>