<?xml version="1.0" encoding="utf-8"?>
<svg viewBox="0 0 165 256" xmlns="http://www.w3.org/2000/svg" xmlns:xlink="http://www.w3.org/1999/xlink">
<defs>
<linearGradient gradientUnits="userSpaceOnUse" id="linear-gradient" x1="30.141" x2="125.512" y1="-9.915" y2="246.085">
<stop class="linear__stop-1" offset="0"/>
<stop class="linear__stop-2" offset="0.539"/>
<stop class="linear__stop-3" offset="1"/>
</linearGradient>
<radialGradient cx="82.5" cy="128" gradientTransform="matrix(-0.185369, -0.424122, 0.916304, -0.400483, -19.494084, 214.251912)" gradientUnits="userSpaceOnUse" id="radial-gradient" r="30">
<stop class=" radial__stop-1" offset="0"/>
<stop class="radial__stop-2" offset="1"/>
</radialGradient>
</defs>
<rect class="rect" height="256" rx="20" ry="20" width="165" x="0" y="0"/>
<g class="faces">
<path class="face" d="M82.5,171.25A43.25,43.25,0,1,0,39.25,128,43.25,43.25,0,0,0,82.5,171.25Zm0-8a35.06,35.06,0,0,1-21.91-7.67l49.48-49.48A35.21,35.21,0,0,1,82.5,163.24Zm0-70.48a35.06,35.06,0,0,1,21.91,7.67L54.93,149.91A35.21,35.21,0,0,1,82.5,92.76Z"/>
</g>
<g class="edges-1">
<path class="edge" d="M28,13.5a14.23,14.23,0,0,0-14.48,14A14.23,14.23,0,0,0,28,41.43a14.24,14.24,0,0,0,14.48-14A14.23,14.23,0,0,0,28,13.5Zm-11.8,14A11.59,11.59,0,0,1,28,16.09a12,12,0,0,1,7.33,2.47l-16.56,16A11.11,11.11,0,0,1,16.18,27.46ZM28,38.84a12.06,12.06,0,0,1-7.34-2.47l16.57-16a11.09,11.09,0,0,1,2.57,7.07A11.6,11.6,0,0,1,28,38.84Z"/>
</g>
<g class="edges-2">
<path class="edge" d="M137,214.57a14,14,0,1,0,14.48,14A14.23,14.23,0,0,0,137,214.57Zm-11.8,14A11.6,11.6,0,0,1,137,217.16a12.06,12.06,0,0,1,7.34,2.47l-16.57,16A11.09,11.09,0,0,1,125.22,228.54ZM137,239.91a12,12,0,0,1-7.33-2.47l16.56-16a11.11,11.11,0,0,1,2.57,7.08A11.59,11.59,0,0,1,137,239.91Z"/>
</g>
<style>.rect {
  fill: url(#linear-gradient);
}

.edge {
  stroke-miterlimit: 10;
  stroke-width: 1.5px;
}
.edges__text {
  font-family: HYShortSamul;
  font-size: 50px;
  transform: scale(1.3, 1);
}

.faces {
  fill: url(#radial-gradient);
  stroke: url(#radial-gradient);
}
.faces__no-fill {
  stroke: url(#radial-gradient);
  fill: none;
}
.faces__text {
  font-family: Colonna MT;
  font-size: 123px;
  stroke: none;
}
.face {
  stroke-miterlimit: 10;
  stroke-width: 5px;
}

.edges-1 {
  fill: rgba(55, 55, 150, 0.65);
}

.edges-2 {
  fill: rgba(55, 55, 150, 0.35);
}

.linear__stop-1 {
  stop-color: rgb(74, 74, 208);
}
.linear__stop-2 {
  stop-color: rgb(83, 83, 157);
}
.linear__stop-3 {
  stop-color: rgba(0, 0, 0, 1);
}
.radial__stop-1 {
  stop-color: rgb(255, 255, 255);
}
.radial__stop-2 {
  stop-color: rgb(170, 170, 225);
}
</style></svg>