<?xml version="1.0" encoding="utf-8"?>
<svg viewBox="0 0 165 256" xmlns="http://www.w3.org/2000/svg" xmlns:xlink="http://www.w3.org/1999/xlink">
<defs>
<linearGradient gradientUnits="userSpaceOnUse" id="linear-gradient" x1="30.141" x2="125.512" y1="-9.915" y2="246.085">
<stop class="linear__stop-1" offset="0"/>
<stop class="linear__stop-2" offset="0.539"/>
<stop class="linear__stop-3" offset="1"/>
</linearGradient>
<radialGradient cx="82.5" cy="128" gradientTransform="matrix(-0.185369, -0.424122, 0.916304, -0.400483, -19.494084, 214.251912)" gradientUnits="userSpaceOnUse" id="radial-gradient" r="30">
<stop class=" radial__stop-1" offset="0"/>
<stop class="radial__stop-2" offset="1"/>
</radialGradient>
</defs>
<rect class="rect" height="256" rx="20" ry="20" width="165" x="0" y="0"/>
<g class="faces__no-fill">
<path class="face" d="M43.25,131.65H35.07a47.57,47.57,0,0,0,43.78,43.78v-8.8A38.94,38.94,0,0,1,43.25,131.65Z">
</path>
<path class="face" d="M86.15,166.57v8.86a47.57,47.57,0,0,0,43.78-43.78H121.1A39,39,0,0,1,86.15,166.57Z"/>
<path class="face" d="M35.07,124.35h8.18a38.94,38.94,0,0,1,35.6-35v-8.8A47.57,47.57,0,0,0,35.07,124.35Z"/>
<path class="face" d="M121.1,124.35h8.83A47.57,47.57,0,0,0,86.15,80.57v8.86A39,39,0,0,1,121.1,124.35Z"/>
</g>
<g class="edges-1">
<path class="edge" d="M16,29.18H13.5A14.59,14.59,0,0,0,26.94,42.62v-2.7A12,12,0,0,1,16,29.18Z"/>
<path class="edge" d="M29.18,39.9v2.72A14.58,14.58,0,0,0,42.62,29.18H39.91A12,12,0,0,1,29.18,39.9Z"/>
<path class="edge" d="M13.5,26.94H16A12,12,0,0,1,26.94,16.2V13.5A14.6,14.6,0,0,0,13.5,26.94Z"/>
<path class="edge" d="M39.91,26.94h2.71A14.59,14.59,0,0,0,29.18,13.5v2.72A12,12,0,0,1,39.91,26.94Z"/>
</g>
<g class="edges-2">
<path class="edge" d="M149,226.82h2.51a14.59,14.59,0,0,0-13.44-13.44v2.7A12,12,0,0,1,149,226.82Z"/>
<path class="edge" d="M135.82,216.1v-2.72a14.58,14.58,0,0,0-13.44,13.44h2.71A12,12,0,0,1,135.82,216.1Z"/>
<path class="edge" d="M151.5,229.06H149a12,12,0,0,1-10.93,10.74v2.7A14.6,14.6,0,0,0,151.5,229.06Z"/>
<path class="edge" d="M125.09,229.06h-2.71a14.59,14.59,0,0,0,13.44,13.44v-2.72A12,12,0,0,1,125.09,229.06Z"/>
</g>
<style>.rect {
  fill: url(#linear-gradient);
}

.edge {
  stroke-miterlimit: 10;
  stroke-width: 1.5px;
}
.edges__text {
  font-family: HYShortSamul;
  font-size: 50px;
  transform: scale(1.3, 1);
}

.faces {
  fill: url(#radial-gradient);
  stroke: url(#radial-gradient);
}
.faces__no-fill {
  stroke: url(#radial-gradient);
  fill: none;
}
.faces__text {
  font-family: Colonna MT;
  font-size: 123px;
  stroke: none;
}
.face {
  stroke-miterlimit: 10;
  stroke-width: 5px;
}

.edges-1 {
  fill: rgba(55, 55, 150, 0.65);
}

.edges-2 {
  fill: rgba(55, 55, 150, 0.35);
}

.linear__stop-1 {
  stop-color: rgb(74, 74, 208);
}
.linear__stop-2 {
  stop-color: rgb(83, 83, 157);
}
.linear__stop-3 {
  stop-color: rgba(0, 0, 0, 1);
}
.radial__stop-1 {
  stop-color: rgb(255, 255, 255);
}
.radial__stop-2 {
  stop-color: rgb(170, 170, 225);
}
</style></svg>