<?xml version="1.0" encoding="utf-8"?>
<svg viewBox="0 0 165 256" xmlns="http://www.w3.org/2000/svg" xmlns:xlink="http://www.w3.org/1999/xlink">
<defs>
<linearGradient gradientUnits="userSpaceOnUse" id="linear-gradient" x1="30.141" x2="125.512" y1="-9.915" y2="246.085">
<stop class="linear__stop-1" offset="0"/>
<stop class="linear__stop-2" offset="0.539"/>
<stop class="linear__stop-3" offset="1"/>
</linearGradient>
<radialGradient cx="82.5" cy="128" gradientTransform="matrix(-0.185369, -0.424122, 0.916304, -0.400483, -19.494084, 214.251912)" gradientUnits="userSpaceOnUse" id="radial-gradient" r="30">
<stop class=" radial__stop-1" offset="0"/>
<stop class="radial__stop-2" offset="1"/>
</radialGradient>
</defs>
<rect class="rect" height="256" rx="20" ry="20" width="165" x="0" y="0"/>
<g class="faces__no-fill">
<path class="face" d="M 89.486 127.475 L 111.086 127.475 C 112.586 127.469 113.801 126.255 113.806 124.755 L 113.806 75.145 C 113.801 73.647 112.584 72.435 111.086 72.435 L 78.166 72.435 C 76.668 72.435 75.452 73.647 75.446 75.145 L 75.446 113.275">
</path>
<path class="face" d="M 75.446 119.205 L 75.446 124.755 C 75.452 126.255 76.666 127.469 78.166 127.475 L 83.406 127.475"/>
<path class="face" d="M 86.816 112.935 L 53.816 112.935 C 52.344 112.94 51.152 114.133 51.146 115.605 L 51.146 165.305 C 51.152 166.777 52.344 167.969 53.816 167.975 L 86.816 167.975 C 88.288 167.969 89.481 166.777 89.486 165.305 L 89.486 115.605 C 89.481 114.133 88.288 112.94 86.816 112.935 Z">
</path>
</g>
<g class="edges-1">
<text class="edges__text" x="7" y="56">2+</text>
</g>
<g class="edges-2">
<text class="edges__text" rotate="180" x="100" y="195">+2</text>
</g>
<style>.rect {
  fill: url(#linear-gradient);
}

.edge {
  stroke-miterlimit: 10;
  stroke-width: 1.5px;
}
.edges__text {
  font-family: HYShortSamul;
  font-size: 50px;
  transform: scale(1.3, 1);
}

.faces {
  fill: url(#radial-gradient);
  stroke: url(#radial-gradient);
}
.faces__no-fill {
  stroke: url(#radial-gradient);
  fill: none;
}
.faces__text {
  font-family: Colonna MT;
  font-size: 123px;
  stroke: none;
}
.face {
  stroke-miterlimit: 10;
  stroke-width: 5px;
}

.edges-1 {
  fill: rgba(150, 55, 55, 0.65);
}

.edges-2 {
  fill: rgba(150, 55, 55, 0.35);
}

.linear__stop-1 {
  stop-color: rgb(208, 74, 74);
}
.linear__stop-2 {
  stop-color: rgb(157, 83, 83);
}
.linear__stop-3 {
  stop-color: rgba(0, 0, 0, 1);
}
.radial__stop-1 {
  stop-color: rgb(255, 255, 255);
}
.radial__stop-2 {
  stop-color: rgb(225, 170, 170);
}
</style></svg>